<?xml version="1.0" encoding="UTF-8"?>
<svg xmlns="http://www.w3.org/2000/svg" xmlns:xlink="http://www.w3.org/1999/xlink" width="200pt" height="200pt" viewBox="0 0 200 200" version="1.1">
<g id="surface599">
<rect x="0" y="0" width="200" height="200" style="fill:rgb(100%,100%,100%);fill-opacity:1;stroke:none;"/>
<path style="fill:none;stroke-width:2;stroke-linecap:butt;stroke-linejoin:miter;stroke:rgb(0%,0%,0%);stroke-opacity:1;stroke-miterlimit:10;" d="M 150 73.332031 C 164.203125 92.273438 166.488281 117.609375 155.902344 138.785156 C 145.316406 159.957031 123.671875 173.332031 100 173.332031 C 76.328125 173.332031 54.683594 159.957031 44.097656 138.785156 C 33.511719 117.609375 35.796875 92.273438 50 73.332031 C 50 45.71875 72.386719 23.332031 100 23.332031 C 127.613281 23.332031 150 45.71875 150 73.332031 Z M 150 73.332031 "/>
<path style=" stroke:none;fill-rule:nonzero;fill:rgb(0%,0%,0%);fill-opacity:1;" d="M 28.550781 59.375 C 38.996094 38.871094 54.113281 25.636719 62.316406 29.816406 C 70.519531 33.996094 68.695312 54.003906 58.25 74.507812 C 47.804688 95.011719 32.683594 108.246094 24.484375 104.066406 C 16.28125 99.886719 18.101562 79.878906 28.550781 59.375 "/>
<path style=" stroke:none;fill-rule:nonzero;fill:rgb(0%,0%,0%);fill-opacity:1;" d="M 141.75 74.507812 C 131.304688 54.003906 129.480469 33.996094 137.683594 29.816406 C 145.886719 25.636719 161.003906 38.871094 171.449219 59.375 C 181.898438 79.878906 183.71875 99.886719 175.515625 104.066406 C 167.316406 108.246094 152.195312 95.011719 141.75 74.507812 "/>
<path style=" stroke:none;fill-rule:nonzero;fill:rgb(0%,0%,0%);fill-opacity:1;" d="M 63.332031 93.332031 C 63.332031 85.96875 67.808594 80 73.332031 80 C 78.855469 80 83.332031 85.96875 83.332031 93.332031 C 83.332031 100.695312 78.855469 106.667969 73.332031 106.667969 C 67.808594 106.667969 63.332031 100.695312 63.332031 93.332031 "/>
<path style=" stroke:none;fill-rule:nonzero;fill:rgb(0%,0%,0%);fill-opacity:1;" d="M 116.667969 93.332031 C 116.667969 85.96875 121.144531 80 126.667969 80 C 132.191406 80 136.667969 85.96875 136.667969 93.332031 C 136.667969 100.695312 132.191406 106.667969 126.667969 106.667969 C 121.144531 106.667969 116.667969 100.695312 116.667969 93.332031 "/>
<path style="fill:none;stroke-width:2;stroke-linecap:butt;stroke-linejoin:miter;stroke:rgb(0%,0%,0%);stroke-opacity:1;stroke-miterlimit:10;" d="M 100 133.332031 L 100 153.332031 "/>
<path style="fill:none;stroke-width:2;stroke-linecap:butt;stroke-linejoin:miter;stroke:rgb(0%,0%,0%);stroke-opacity:1;stroke-miterlimit:10;" d="M 100 153.332031 C 100.179688 155.210938 99.558594 157.078125 98.289062 158.472656 C 97.019531 159.871094 95.21875 160.667969 93.332031 160.667969 C 91.445312 160.667969 89.648438 159.871094 88.378906 158.472656 C 87.109375 157.078125 86.488281 155.210938 86.667969 153.332031 "/>
<path style="fill:none;stroke-width:2;stroke-linecap:butt;stroke-linejoin:miter;stroke:rgb(0%,0%,0%);stroke-opacity:1;stroke-miterlimit:10;" d="M 113.332031 153.332031 C 113.511719 155.210938 112.890625 157.078125 111.621094 158.472656 C 110.351562 159.871094 108.554688 160.667969 106.667969 160.667969 C 104.78125 160.667969 102.980469 159.871094 101.710938 158.472656 C 100.441406 157.078125 99.820312 155.210938 100 153.332031 "/>
<path style=" stroke:none;fill-rule:nonzero;fill:rgb(0%,0%,0%);fill-opacity:1;" d="M 108.660156 120.832031 L 111.574219 121.417969 L 113.960938 123.027344 L 115.566406 125.410156 L 116.160156 128.332031 L 115.566406 131.246094 L 106.90625 146.246094 L 105.300781 148.632812 L 104.1875 149.546875 L 101.507812 150.675781 L 100 150.832031 L 97.078125 150.238281 L 95.804688 149.546875 L 93.773438 147.519531 L 85.113281 132.519531 L 84.425781 131.246094 L 83.839844 128.332031 L 83.988281 126.816406 L 85.113281 124.136719 L 87.144531 122.105469 L 89.824219 120.980469 Z M 108.660156 120.832031 "/>
<path style=" stroke:none;fill-rule:nonzero;fill:rgb(79.6%,23.5%,20%);fill-opacity:1;" d="M 101.160156 128.332031 C 101.160156 124.191406 104.519531 120.832031 108.660156 120.832031 C 112.800781 120.832031 116.160156 124.191406 116.160156 128.332031 C 116.160156 132.476562 112.800781 135.832031 108.660156 135.832031 C 104.519531 135.832031 101.160156 132.476562 101.160156 128.332031 "/>
<path style=" stroke:none;fill-rule:nonzero;fill:rgb(22%,59.6%,14.9%);fill-opacity:1;" d="M 92.5 143.332031 C 92.5 139.191406 95.859375 135.832031 100 135.832031 C 104.140625 135.832031 107.5 139.191406 107.5 143.332031 C 107.5 147.476562 104.140625 150.832031 100 150.832031 C 95.859375 150.832031 92.5 147.476562 92.5 143.332031 "/>
<path style=" stroke:none;fill-rule:nonzero;fill:rgb(58.4%,34.5%,69.8%);fill-opacity:1;" d="M 83.839844 128.332031 C 83.839844 124.191406 87.199219 120.832031 91.339844 120.832031 C 95.480469 120.832031 98.839844 124.191406 98.839844 128.332031 C 98.839844 132.476562 95.480469 135.832031 91.339844 135.832031 C 87.199219 135.832031 83.839844 132.476562 83.839844 128.332031 "/>
</g>
</svg>
