<?xml version="1.0" encoding="UTF-8"?>
<svg xmlns="http://www.w3.org/2000/svg" xmlns:xlink="http://www.w3.org/1999/xlink" width="500pt" height="500pt" viewBox="0 0 500 500" version="1.1">
<g id="surface830">
<path style=" stroke:none;fill-rule:nonzero;fill:rgb(25.1%,38.8%,84.7%);fill-opacity:1;" d="M 71.375 148.433594 C 97.492188 97.175781 135.285156 64.089844 155.789062 74.539062 C 176.292969 84.984375 171.742188 135.007812 145.625 186.269531 C 119.507812 237.527344 81.710938 270.613281 61.207031 260.164062 C 40.707031 249.71875 45.257812 199.695312 71.375 148.433594 "/>
<path style=" stroke:none;fill-rule:nonzero;fill:rgb(25.1%,38.8%,84.7%);fill-opacity:1;" d="M 354.375 186.269531 C 328.257812 135.007812 323.707031 84.984375 344.210938 74.539062 C 364.714844 64.089844 402.507812 97.175781 428.625 148.433594 C 454.742188 199.695312 459.292969 249.71875 438.792969 260.164062 C 418.289062 270.613281 380.492188 237.527344 354.375 186.269531 "/>
<path style=" stroke:none;fill-rule:nonzero;fill:rgb(70.980392%,77.647059%,100%);fill-opacity:1;" d="M 375 183.332031 C 410.511719 230.679688 416.222656 294.027344 389.753906 346.960938 C 363.285156 399.894531 309.183594 433.332031 250 433.332031 C 190.816406 433.332031 136.714844 399.894531 110.246094 346.960938 C 83.777344 294.027344 89.488281 230.679688 125 183.332031 C 125 114.296875 180.964844 58.332031 250 58.332031 C 319.035156 58.332031 375 114.296875 375 183.332031 Z M 375 183.332031 "/>
<path style=" stroke:none;fill-rule:nonzero;fill:rgb(25.1%,38.8%,84.7%);fill-opacity:1;" d="M 158.332031 233.332031 C 158.332031 214.925781 169.527344 200 183.332031 200 C 197.140625 200 208.332031 214.925781 208.332031 233.332031 C 208.332031 251.742188 197.140625 266.667969 183.332031 266.667969 C 169.527344 266.667969 158.332031 251.742188 158.332031 233.332031 "/>
<path style=" stroke:none;fill-rule:nonzero;fill:rgb(25.1%,38.8%,84.7%);fill-opacity:1;" d="M 291.667969 233.332031 C 291.667969 214.925781 302.859375 200 316.667969 200 C 330.472656 200 341.667969 214.925781 341.667969 233.332031 C 341.667969 251.742188 330.472656 266.667969 316.667969 266.667969 C 302.859375 266.667969 291.667969 251.742188 291.667969 233.332031 "/>
<path style="fill:none;stroke-width:2;stroke-linecap:butt;stroke-linejoin:miter;stroke:rgb(25.1%,38.8%,84.7%);stroke-opacity:1;stroke-miterlimit:10;" d="M 250 333.332031 L 250 383.332031 "/>
<path style="fill:none;stroke-width:2;stroke-linecap:butt;stroke-linejoin:miter;stroke:rgb(25.1%,38.8%,84.7%);stroke-opacity:1;stroke-miterlimit:10;" d="M 250 383.332031 C 250.449219 388.027344 248.894531 392.695312 245.722656 396.1875 C 242.546875 399.675781 238.050781 401.667969 233.332031 401.667969 C 228.617188 401.667969 224.117188 399.675781 220.945312 396.1875 C 217.773438 392.695312 216.21875 388.027344 216.667969 383.332031 "/>
<path style="fill:none;stroke-width:2;stroke-linecap:butt;stroke-linejoin:miter;stroke:rgb(25.1%,38.8%,84.7%);stroke-opacity:1;stroke-miterlimit:10;" d="M 283.332031 383.332031 C 283.78125 388.027344 282.226562 392.695312 279.054688 396.1875 C 275.882812 399.675781 271.382812 401.667969 266.667969 401.667969 C 261.949219 401.667969 257.453125 399.675781 254.277344 396.1875 C 251.105469 392.695312 249.550781 388.027344 250 383.332031 "/>
<path style=" stroke:none;fill-rule:nonzero;fill:rgb(25.1%,38.8%,84.7%);fill-opacity:1;" d="M 228.347656 302.082031 L 271.652344 302.082031 L 275.425781 302.460938 L 278.945312 303.550781 L 282.128906 305.277344 L 284.90625 307.570312 L 287.191406 310.339844 L 288.925781 313.527344 L 290.015625 317.046875 L 290.402344 320.832031 L 290.015625 324.605469 L 288.925781 328.125 L 287.191406 331.308594 L 267.273438 365.625 L 264.460938 370.25 L 260.476562 373.871094 L 255.566406 376.230469 L 250 377.082031 L 246.214844 376.695312 L 241.054688 374.808594 L 238.0625 372.792969 L 234.445312 368.808594 L 211.851562 329.761719 L 209.976562 324.605469 L 209.597656 320.832031 L 210.433594 315.246094 L 212.792969 310.339844 L 215.085938 307.570312 L 217.855469 305.277344 L 222.761719 302.917969 Z M 228.347656 302.082031 "/>
<path style=" stroke:none;fill-rule:nonzero;fill:rgb(79.6%,23.5%,20%);fill-opacity:1;" d="M 252.902344 320.832031 C 252.902344 310.476562 261.296875 302.082031 271.652344 302.082031 C 282.007812 302.082031 290.402344 310.476562 290.402344 320.832031 C 290.402344 331.1875 282.007812 339.582031 271.652344 339.582031 C 261.296875 339.582031 252.902344 331.1875 252.902344 320.832031 "/>
<path style=" stroke:none;fill-rule:nonzero;fill:rgb(22%,59.6%,14.9%);fill-opacity:1;" d="M 231.25 358.332031 C 231.25 347.976562 239.644531 339.582031 250 339.582031 C 260.355469 339.582031 268.75 347.976562 268.75 358.332031 C 268.75 368.6875 260.355469 377.082031 250 377.082031 C 239.644531 377.082031 231.25 368.6875 231.25 358.332031 "/>
<path style=" stroke:none;fill-rule:nonzero;fill:rgb(58.4%,34.5%,69.8%);fill-opacity:1;" d="M 209.597656 320.832031 C 209.597656 310.476562 217.992188 302.082031 228.347656 302.082031 C 238.703125 302.082031 247.097656 310.476562 247.097656 320.832031 C 247.097656 331.1875 238.703125 339.582031 228.347656 339.582031 C 217.992188 339.582031 209.597656 331.1875 209.597656 320.832031 "/>
</g>
</svg>
